<svg width="512" height="512" viewBox="0 0 512 512" fill="none" xmlns="http://www.w3.org/2000/svg">
<path fill-rule="evenodd" clip-rule="evenodd" d="M413.607 48C414.931 48.0636 415.177 48.2067 415.939 48.5829C417.491 59.0199 407.997 74.9654 410.115 85.9428C411.113 91.1679 414.351 98.322 417.991 101.123C424.477 106.133 451.139 113.287 459.992 108.131C468.921 102.927 472.352 96.1705 474.867 84.4855C476.355 77.57 475.397 64.3483 481.867 62.5916C491.89 77.1646 506.63 99.1566 498.784 124.768C495.776 134.585 490.047 141.726 484.199 148.705C475.246 159.394 456.023 162.165 451.242 176.73L446.284 202.418C440.367 225.735 435.297 249.243 427.032 270.435C403.036 331.972 358.687 379.012 297.242 403.258L297.533 403.841C311.135 409.406 324.417 427.844 331.075 440.915C333.169 445.027 337.599 451.601 337.493 456.386C329.188 457.891 321 461.087 311.813 462.809C280.259 468.736 254.365 451.416 242.105 435.661L230.722 418.438C200.25 418.817 166.801 421.112 138.265 416.101C123.265 413.47 110.441 413.237 98.5967 408.513C68.5465 396.528 47.2378 373.084 31.2212 346.919C23.115 333.671 -0.00186735 292.225 14.8896 273.355C24.1845 261.574 49.2048 249.431 67.0983 246.498L88.9735 250.586L120.181 256.132C131.511 258.617 149.148 262.433 164.514 259.926L225.763 257.012L264.264 252.926C305.475 245.181 344.09 238.909 372.472 218.772C387.091 208.401 398.416 195.15 398.432 170.019C398.432 164.558 398.784 159.253 396.974 154.839C394.943 149.895 390.387 146.601 387.348 142.579C380.263 133.204 370.55 118.282 373.64 100.542C378.352 73.5293 395.166 61.2482 413.607 48Z" fill="#2EB5EF"/>
</svg>
